<?xml version="1.0" encoding="UTF-8" ?>
<svg version="1.1" width="96" height="96" xmlns="http://www.w3.org/2000/svg" shape-rendering="crispEdges">
<rect x="32" y="16" width="16" height="4" fill="#242424" />
<rect x="40" y="20" width="12" height="8" fill="#242424" />
<rect x="16" y="24" width="20" height="8" fill="#242424" />
<rect x="12" y="28" width="4" height="4" fill="#242424" />
<rect x="36" y="28" width="4" height="8" fill="#242424" />
<rect x="44" y="28" width="8" height="4" fill="#242424" />
<rect x="56" y="28" width="12" height="8" fill="#242424" />
<rect x="8" y="32" width="4" height="4" fill="#242424" />
<rect x="32" y="32" width="4" height="12" fill="#242424" />
<rect x="40" y="32" width="4" height="4" fill="#242424" />
<rect x="48" y="32" width="8" height="8" fill="#242424" />
<rect x="68" y="32" width="4" height="4" fill="#242424" />
<rect x="20" y="36" width="12" height="8" fill="#242424" />
<rect x="44" y="36" width="4" height="16" fill="#242424" />
<rect x="56" y="36" width="4" height="4" fill="#242424" />
<rect x="16" y="40" width="4" height="16" fill="#242424" />
<rect x="36" y="40" width="4" height="4" fill="#242424" />
<rect x="52" y="40" width="4" height="24" fill="#242424" />
<rect x="60" y="40" width="20" height="4" fill="#242424" />
<rect x="12" y="44" width="4" height="16" fill="#242424" />
<rect x="20" y="44" width="8" height="8" fill="#242424" />
<rect x="40" y="44" width="4" height="8" fill="#242424" />
<rect x="48" y="44" width="4" height="12" fill="#242424" />
<rect x="56" y="44" width="4" height="16" fill="#242424" />
<rect x="64" y="44" width="20" height="8" fill="#242424" />
<rect x="28" y="48" width="12" height="4" fill="#242424" />
<rect x="60" y="48" width="4" height="4" fill="#242424" />
<rect x="84" y="48" width="4" height="16" fill="#242424" />
<rect x="8" y="52" width="4" height="16" fill="#242424" />
<rect x="24" y="52" width="4" height="16" fill="#242424" />
<rect x="68" y="52" width="4" height="16" fill="#242424" />
<rect x="76" y="52" width="8" height="4" fill="#242424" />
<rect x="80" y="56" width="4" height="4" fill="#242424" />
<rect x="48" y="64" width="4" height="4" fill="#242424" />
<rect x="88" y="64" width="4" height="4" fill="#242424" />
<rect x="28" y="68" width="4" height="4" fill="#242424" />
<rect x="64" y="68" width="4" height="4" fill="#242424" />
<rect x="32" y="72" width="32" height="4" fill="#242424" />
</svg>